<?xml version="1.0" encoding="utf-8"?>
<!-- Generator: Adobe Illustrator 23.1.1, SVG Export Plug-In . SVG Version: 6.00 Build 0)  -->
<svg version="1.1" id="Layer_1" xmlns="http://www.w3.org/2000/svg" xmlns:xlink="http://www.w3.org/1999/xlink" x="0px" y="0px"
	 viewBox="0 0 720 504" style="enable-background:new 0 0 720 504;" xml:space="preserve">
<style type="text/css">
	.st0{fill:none;}
	.st1{fill:#6D6D6D;}
	.st2{font-family:'ArialNarrow-Bold';}
	.st3{font-size:81.8643px;}
	.st4{font-family:'ArialNarrow-Italic';}
	.st5{font-size:62.4389px;}
	.st6{fill:none;stroke:#EC8D22;stroke-width:6;stroke-miterlimit:10;}
	.st7{fill:none;stroke:#6D6D6D;stroke-width:5;stroke-miterlimit:10;}
	.st8{fill:none;stroke:#6D6D6D;stroke-width:6;stroke-miterlimit:10;}
	.st9{font-size:18.0379px;}
	.st10{fill:none;stroke:#6D6D6D;stroke-miterlimit:10;}
	.st11{fill:none;stroke:#F79420;stroke-width:2;stroke-miterlimit:10;}
	.st12{font-size:37.4633px;}
	.st13{font-size:15.2628px;}
</style>
<rect x="100.9" y="209.6" class="st0" width="290.9" height="75.9"/>
<text transform="matrix(1 0 0 1 100.8962 268.1733)" class="st1 st2 st3">IHERMO</text>
<rect x="385.3" y="263.5" class="st0" width="298.5" height="75.9"/>
<text transform="matrix(1 0 0 1 385.3386 308.1675)" class="st1 st4 st5">SECURE</text>
<polygon class="st1" points="115.2,209.6 115.1,197.3 105.5,199 105.5,209.6 "/>
<path class="st6" d="M397.5,232.2"/>
<path class="st7" d="M390.5,226.3"/>
<line class="st8" x1="64.9" y1="226.3" x2="232.9" y2="122.6"/>
<path class="st6" d="M620.8,318.1"/>
<rect x="478.3" y="337.2" class="st0" width="151.4" height="22.9"/>
<text transform="matrix(1 0 0 1 478.3269 350.1479)" class="st1 st2 st9">BY: HOUSECOM</text>
<path class="st10" d="M231.2,128.5"/>
<path class="st10" d="M67,229.2"/>
<path class="st10" d="M231.2,128.5"/>
<path class="st10" d="M395.4,235.6"/>
<path class="st10" d="M377.6,315.2"/>
<path class="st10" d="M379.4,225.2"/>
<path class="st10" d="M620.8,314.2"/>
<path class="st10" d="M377,314.5"/>
<g>
	<line class="st8" x1="377.5" y1="215.8" x2="377.8" y2="330.8"/>
	<line class="st11" x1="377.5" y1="215.8" x2="377.8" y2="330.8"/>
</g>
<g>
	<line class="st8" x1="229.8" y1="122.8" x2="398.1" y2="229.4"/>
	<line class="st11" x1="229.8" y1="122.8" x2="398.1" y2="229.4"/>
</g>
<g>
	<line class="st8" x1="374.8" y1="328.6" x2="623" y2="328.8"/>
	<line class="st11" x1="374.8" y1="328.6" x2="623" y2="328.8"/>
</g>
<rect x="609.3" y="263.5" class="st0" width="95.9" height="51.2"/>
<text transform="matrix(1 0 0 1 609.2849 290.2856)" class="st1 st4 st12">™</text>
<rect x="600.1" y="337.2" class="st0" width="95.9" height="51.2"/>
<text transform="matrix(1 0 0 1 600.0886 348.1616)" class="st1 st4 st13">™</text>
</svg>
